<svg width="60" height="25" viewBox="0 0 60 25" fill="none" xmlns="http://www.w3.org/2000/svg">
<path d="M11.23 3.7062C10.5349 4.52877 9.4227 5.17755 8.3105 5.08487C8.17148 3.97267 8.71599 2.79096 9.35319 2.06108C10.0483 1.21534 11.2648 0.6129 12.2495 0.566559C12.3654 1.7251 11.9136 2.86047 11.23 3.7062ZM12.238 5.30499C10.6276 5.21231 9.24892 6.22023 8.48428 6.22023C7.70806 6.22023 6.53794 5.35133 5.26354 5.3745C3.60683 5.39767 2.06597 6.33609 1.22024 7.83061C-0.517573 10.8196 0.768406 15.2453 2.44829 17.6782C3.27085 18.8831 4.25561 20.2038 5.55318 20.1575C6.78123 20.1111 7.26782 19.3581 8.75075 19.3581C10.2453 19.3581 10.6739 20.1575 11.9715 20.1343C13.3154 20.1111 14.1611 18.9294 14.9837 17.7245C15.9221 16.3575 16.3044 15.0251 16.3276 14.9556C16.3044 14.9325 13.7325 13.9477 13.7093 10.9818C13.6861 8.50256 15.7367 7.32085 15.8294 7.25134C14.6709 5.5367 12.8636 5.35133 12.238 5.30499ZM21.541 1.94522V20.0069H24.3447V13.8318H28.2258C31.7709 13.8318 34.2618 11.3989 34.2618 7.87695C34.2618 4.35498 31.8173 1.94522 28.3185 1.94522H21.541ZM24.3447 4.30864H27.577C30.01 4.30864 31.4002 5.60621 31.4002 7.88853C31.4002 10.1709 30.01 11.48 27.5654 11.48H24.3447V4.30864ZM39.3825 20.1459C41.1435 20.1459 42.7771 19.2538 43.5185 17.8404H43.5765V20.0069H46.1716V11.0166C46.1716 8.40988 44.0862 6.72999 40.8771 6.72999C37.8996 6.72999 35.6984 8.43305 35.6173 10.7733H38.1429C38.3514 9.6611 39.3825 8.93122 40.796 8.93122C42.5106 8.93122 43.4722 9.73061 43.4722 11.202V12.1983L39.9734 12.4068C36.7179 12.6038 34.9569 13.9361 34.9569 16.2532C34.9569 18.5934 36.7758 20.1459 39.3825 20.1459ZM40.1356 18.0026C38.6411 18.0026 37.6911 17.2843 37.6911 16.1837C37.6911 15.0483 38.6063 14.3879 40.3557 14.2837L43.4722 14.0867V15.1062C43.4722 16.7977 42.0356 18.0026 40.1356 18.0026ZM49.6356 24.9191C52.3698 24.9191 53.6558 23.8764 54.7795 20.7136L59.7033 6.90377H56.8533L53.5515 17.5739H53.4936L50.1917 6.90377H47.2606L52.0106 20.0532L51.7558 20.8526C51.3271 22.2081 50.632 22.7294 49.3923 22.7294C49.1722 22.7294 48.7436 22.7063 48.5698 22.6831V24.8496C48.732 24.8959 49.4271 24.9191 49.6356 24.9191Z" fill="#5881B0"/>
</svg>
