<svg width="57" height="23" viewBox="0 0 57 23" fill="none" xmlns="http://www.w3.org/2000/svg">
<g clip-path="url(#clip0_1338_5073)">
<path d="M26.6924 11.5015V18.0133H24.6266V1.93208H30.1055C30.7595 1.91842 31.4097 2.03441 32.0186 2.27335C32.6275 2.5123 33.1831 2.86947 33.6533 3.32425C34.1282 3.75143 34.5061 4.27531 34.7618 4.86069C35.0174 5.44607 35.1447 6.07939 35.1353 6.71808C35.1489 7.36018 35.0235 7.99764 34.7677 8.58675C34.5119 9.17586 34.1317 9.7027 33.6533 10.1311C32.6952 11.0447 31.5126 11.5011 30.1055 11.5002H26.6924V11.5015ZM26.6924 3.91192V9.52552H30.1568C30.5366 9.53678 30.9146 9.46864 31.2665 9.32547C31.6185 9.1823 31.9367 8.96725 32.2008 8.69407C32.4635 8.43865 32.6723 8.13314 32.8149 7.79562C32.9575 7.45809 33.031 7.0954 33.031 6.72898C33.031 6.36257 32.9575 5.99988 32.8149 5.66235C32.6723 5.32483 32.4635 5.01932 32.2008 4.7639C31.94 4.48496 31.6229 4.26464 31.2705 4.11754C30.9181 3.97043 30.5385 3.89991 30.1568 3.91063H26.6924V3.91192Z" fill="#5881B0"/>
<path d="M39.8955 6.65137C41.4224 6.65137 42.6277 7.0594 43.5113 7.87545C44.395 8.69151 44.8364 9.81038 44.8355 11.2321V18.0133H42.8595V16.4864H42.7697C41.9143 17.7438 40.7766 18.3726 39.3566 18.3726C38.1445 18.3726 37.1304 18.0133 36.3144 17.2948C35.9227 16.965 35.6096 16.552 35.3979 16.0858C35.1861 15.6197 35.081 15.1121 35.0903 14.6002C35.0903 13.4617 35.5206 12.5562 36.3811 11.8839C37.2416 11.2115 38.3904 10.8745 39.8275 10.8728C41.0542 10.8728 42.0644 11.0973 42.8582 11.5464V11.0742C42.8606 10.7253 42.7852 10.3801 42.6376 10.0639C42.49 9.74763 42.2739 9.46819 42.005 9.24582C41.4587 8.75294 40.7467 8.48402 40.011 8.49263C38.8571 8.49263 37.9439 8.97936 37.2716 9.95281L35.4521 8.80699C36.4529 7.36991 37.9341 6.65137 39.8955 6.65137ZM37.2228 14.6451C37.2214 14.9081 37.2829 15.1675 37.4021 15.4018C37.5213 15.6362 37.6947 15.8387 37.908 15.9924C38.3649 16.3518 38.932 16.5422 39.5132 16.5313C40.3849 16.5299 41.2205 16.1829 41.8369 15.5664C42.5212 14.9223 42.8634 14.1665 42.8634 13.2992C42.2192 12.7859 41.3211 12.5293 40.1688 12.5293C39.3297 12.5293 38.63 12.7316 38.0697 13.1362C37.5038 13.5468 37.2228 14.0459 37.2228 14.6451Z" fill="#5881B0"/>
<path d="M56.1781 7.0105L49.2801 22.8633H47.1476L49.7074 17.3164L45.1716 7.0105H47.4171L50.6954 14.9145H50.7403L53.9289 7.0105H56.1781Z" fill="#5881B0"/>
<path d="M18.3444 10.0979C18.3452 9.46831 18.292 8.83985 18.1853 8.21939H9.47302V11.7775H14.463C14.3609 12.3457 14.1448 12.8874 13.8277 13.3699C13.5106 13.8524 13.0991 14.2657 12.6179 14.5849V16.8945H15.596C17.3398 15.2868 18.3444 12.9092 18.3444 10.0979Z" fill="#4285F4"/>
<path d="M9.47299 19.126C11.9661 19.126 14.0652 18.3073 15.596 16.8959L12.6179 14.5863C11.789 15.1483 10.7215 15.4691 9.47299 15.4691C7.06331 15.4691 5.01804 13.8447 4.28667 11.6557H1.21875V14.0359C1.98768 15.5659 3.16674 16.8522 4.6243 17.751C6.08187 18.6499 7.76057 19.1259 9.47299 19.126Z" fill="#34A853"/>
<path d="M4.28675 11.6554C3.9001 10.5084 3.9001 9.26623 4.28675 8.11918V5.73901H1.21883C0.571985 7.02617 0.235107 8.44676 0.235107 9.88731C0.235107 11.3279 0.571985 12.7484 1.21883 14.0356L4.28675 11.6554Z" fill="#FBBC04"/>
<path d="M9.47299 4.30584C10.7905 4.28432 12.0635 4.7821 13.0169 5.6916L15.6537 3.05481C13.9817 1.48438 11.7667 0.622192 9.47299 0.648983C7.76057 0.649061 6.08187 1.12509 4.6243 2.02391C3.16674 2.92274 1.98768 4.209 1.21875 5.73908L4.28666 8.11925C5.01804 5.93026 7.06331 4.30584 9.47299 4.30584Z" fill="#EA4335"/>
</g>
<defs>
<clipPath id="clip0_1338_5073">
<rect width="55.9397" height="22.2145" fill="white" transform="translate(0.234619 0.648895)"/>
</clipPath>
</defs>
</svg>
