<svg width="27" height="25" viewBox="0 0 27 25" fill="none" xmlns="http://www.w3.org/2000/svg">
<circle cx="9.03055" cy="9.58396" r="8.90189" fill="#E43439"/>
<circle cx="18.0437" cy="9.58399" r="8.90189" fill="#F8A134" fill-opacity="0.5"/>
<circle cx="18.0437" cy="9.58399" r="8.90189" fill="#F8A134" fill-opacity="0.5"/>
<circle cx="18.0437" cy="9.58399" r="8.90189" fill="#F8A134" fill-opacity="0.5"/>
<path d="M2.10082 22.4151V24.4688H1.40907V21.8789H2.05774L2.10082 22.4151ZM2.00508 23.0829H1.81359C1.81359 22.9026 1.83513 22.7366 1.87822 22.585C1.9229 22.4318 1.98752 22.2994 2.0721 22.1877C2.15827 22.0744 2.26439 21.9866 2.39045 21.9244C2.51651 21.8621 2.66252 21.831 2.82848 21.831C2.94337 21.831 3.04869 21.8486 3.14444 21.8837C3.24018 21.9172 3.32236 21.9706 3.39098 22.044C3.46119 22.1159 3.51545 22.21 3.55375 22.3265C3.59204 22.4414 3.61119 22.5794 3.61119 22.7406V24.4688H2.92183V22.8172C2.92183 22.6991 2.90587 22.6081 2.87396 22.5443C2.84204 22.4805 2.79657 22.4358 2.73752 22.4103C2.68008 22.3847 2.61066 22.372 2.52928 22.372C2.43992 22.372 2.36173 22.3903 2.2947 22.427C2.22928 22.4637 2.17502 22.5148 2.13194 22.5802C2.08885 22.644 2.05694 22.719 2.03619 22.8052C2.01545 22.8914 2.00508 22.9839 2.00508 23.0829ZM3.54656 23.0039L3.30002 23.035C3.30002 22.8659 3.32077 22.7087 3.36226 22.5635C3.40534 22.4183 3.46837 22.2906 3.55135 22.1805C3.63593 22.0704 3.74045 21.985 3.86492 21.9244C3.98938 21.8621 4.133 21.831 4.29577 21.831C4.42023 21.831 4.53353 21.8494 4.63566 21.8861C4.73779 21.9212 4.82476 21.9778 4.89656 22.056C4.96997 22.1326 5.02582 22.2331 5.06412 22.3576C5.10401 22.4821 5.12396 22.6345 5.12396 22.8148V24.4688H4.4322V22.8148C4.4322 22.6951 4.41624 22.6042 4.38433 22.5419C4.35401 22.4781 4.30933 22.4342 4.25029 22.4103C4.19284 22.3847 4.12422 22.372 4.04444 22.372C3.96146 22.372 3.88885 22.3887 3.82662 22.4222C3.76438 22.4542 3.71252 22.4988 3.67103 22.5563C3.62954 22.6137 3.59843 22.6808 3.57768 22.7573C3.55694 22.8323 3.54656 22.9145 3.54656 23.0039ZM7.0556 23.8847V22.731C7.0556 22.648 7.04204 22.577 7.01491 22.518C6.98779 22.4573 6.9455 22.4103 6.88805 22.3768C6.8322 22.3433 6.75959 22.3265 6.67023 22.3265C6.59364 22.3265 6.52741 22.3401 6.47156 22.3672C6.41571 22.3927 6.37263 22.4302 6.34231 22.4797C6.31199 22.5276 6.29683 22.5842 6.29683 22.6496H5.60747C5.60747 22.5395 5.633 22.435 5.68406 22.3361C5.73513 22.2371 5.80933 22.1502 5.90667 22.0752C6.00401 21.9986 6.1197 21.9387 6.25374 21.8956C6.38938 21.8526 6.54098 21.831 6.70853 21.831C6.90959 21.831 7.08832 21.8645 7.2447 21.9315C7.40108 21.9986 7.52396 22.0991 7.61332 22.2331C7.70427 22.3672 7.74975 22.5347 7.74975 22.7358V23.844C7.74975 23.9861 7.75853 24.1026 7.77608 24.1935C7.79364 24.2829 7.81917 24.3611 7.85268 24.4281V24.4688H7.15614C7.12263 24.3986 7.09709 24.3108 7.07954 24.2055C7.06358 24.0986 7.0556 23.9917 7.0556 23.8847ZM7.14656 22.8914L7.15135 23.2815H6.76598C6.67502 23.2815 6.59603 23.2919 6.52901 23.3127C6.46199 23.3334 6.40693 23.3629 6.36385 23.4012C6.32076 23.4379 6.28885 23.481 6.26811 23.5305C6.24896 23.58 6.23938 23.6342 6.23938 23.6932C6.23938 23.7523 6.25295 23.8057 6.28007 23.8536C6.3072 23.8999 6.3463 23.9366 6.39736 23.9637C6.44842 23.9893 6.50826 24.002 6.57688 24.002C6.6806 24.002 6.77076 23.9813 6.84736 23.9398C6.92396 23.8983 6.983 23.8472 7.02449 23.7866C7.06757 23.726 7.08991 23.6685 7.09151 23.6143L7.27342 23.9063C7.24789 23.9717 7.21279 24.0395 7.1681 24.1097C7.12502 24.18 7.06997 24.2462 7.00294 24.3084C6.93592 24.369 6.85534 24.4193 6.76119 24.4592C6.66704 24.4975 6.55534 24.5167 6.42608 24.5167C6.26172 24.5167 6.11252 24.4839 5.97848 24.4185C5.84603 24.3515 5.74071 24.2597 5.66252 24.1432C5.58592 24.0252 5.54763 23.8911 5.54763 23.7411C5.54763 23.6055 5.57316 23.485 5.62422 23.3797C5.67529 23.2744 5.75029 23.1858 5.84922 23.114C5.94975 23.0406 6.07502 22.9855 6.22502 22.9488C6.37502 22.9105 6.54896 22.8914 6.74683 22.8914H7.14656ZM9.6814 23.7531C9.6814 23.7036 9.66704 23.6589 9.63832 23.619C9.60959 23.5792 9.55613 23.5425 9.47794 23.5089C9.40135 23.4738 9.29044 23.4419 9.14523 23.4132C9.01438 23.3845 8.89231 23.3486 8.77901 23.3055C8.66731 23.2608 8.56996 23.2073 8.48699 23.1451C8.4056 23.0829 8.34177 23.0095 8.2955 22.9249C8.24922 22.8387 8.22608 22.7406 8.22608 22.6305C8.22608 22.522 8.24922 22.4198 8.2955 22.3241C8.34337 22.2284 8.41119 22.1438 8.49895 22.0704C8.58832 21.9954 8.69683 21.9371 8.82449 21.8956C8.95374 21.8526 9.09895 21.831 9.26012 21.831C9.48512 21.831 9.67821 21.8669 9.83938 21.9387C10.0021 22.0105 10.1266 22.1095 10.2128 22.2355C10.3005 22.36 10.3444 22.502 10.3444 22.6616H9.65507C9.65507 22.5946 9.64071 22.5347 9.61199 22.4821C9.58486 22.4278 9.54177 22.3855 9.48273 22.3552C9.42528 22.3233 9.35028 22.3073 9.25773 22.3073C9.18113 22.3073 9.11491 22.3209 9.05906 22.348C9.00321 22.3736 8.96012 22.4087 8.92981 22.4534C8.90108 22.4964 8.88672 22.5443 8.88672 22.597C8.88672 22.6369 8.8947 22.6728 8.91066 22.7047C8.92821 22.735 8.95613 22.7629 8.99443 22.7885C9.03273 22.814 9.0822 22.8379 9.14284 22.8603C9.20507 22.881 9.28167 22.9002 9.37262 22.9177C9.55933 22.956 9.72608 23.0063 9.87289 23.0685C10.0197 23.1292 10.1362 23.2121 10.2224 23.3175C10.3085 23.4212 10.3516 23.5576 10.3516 23.7268C10.3516 23.8417 10.3261 23.947 10.275 24.0427C10.224 24.1385 10.1505 24.2222 10.0548 24.294C9.95906 24.3643 9.84417 24.4193 9.71012 24.4592C9.57768 24.4975 9.42847 24.5167 9.26252 24.5167C9.02156 24.5167 8.81731 24.4736 8.64975 24.3874C8.48379 24.3012 8.35773 24.1919 8.27156 24.0595C8.18699 23.9254 8.1447 23.7882 8.1447 23.6478H8.79816C8.80135 23.7419 8.82528 23.8177 8.86996 23.8752C8.91624 23.9326 8.97449 23.9741 9.0447 23.9996C9.11651 24.0252 9.1939 24.0379 9.27688 24.0379C9.36624 24.0379 9.44044 24.026 9.49949 24.002C9.55853 23.9765 9.60321 23.943 9.63353 23.9015C9.66544 23.8584 9.6814 23.8089 9.6814 23.7531ZM12.0678 21.8789V22.3672H10.5599V21.8789H12.0678ZM10.9333 21.2398H11.6226V23.6885C11.6226 23.7635 11.6322 23.8209 11.6513 23.8608C11.6721 23.9007 11.7024 23.9286 11.7423 23.9446C11.7822 23.9589 11.8325 23.9661 11.8931 23.9661C11.9362 23.9661 11.9745 23.9645 12.008 23.9613C12.0431 23.9565 12.0726 23.9518 12.0966 23.947L12.099 24.4544C12.0399 24.4736 11.9761 24.4887 11.9075 24.4999C11.8388 24.5111 11.763 24.5167 11.6801 24.5167C11.5285 24.5167 11.396 24.4919 11.2827 24.4425C11.171 24.3914 11.0849 24.31 11.0242 24.1983C10.9636 24.0866 10.9333 23.9398 10.9333 23.7579V21.2398ZM13.6524 24.5167C13.4513 24.5167 13.271 24.4847 13.1115 24.4209C12.9519 24.3555 12.8162 24.2653 12.7045 24.1504C12.5944 24.0355 12.5099 23.9023 12.4508 23.7507C12.3918 23.5975 12.3622 23.4347 12.3622 23.2624V23.1667C12.3622 22.9704 12.3902 22.7909 12.446 22.6281C12.5019 22.4653 12.5817 22.3241 12.6854 22.2044C12.7907 22.0847 12.9184 21.993 13.0684 21.9292C13.2184 21.8637 13.3875 21.831 13.5758 21.831C13.7593 21.831 13.9221 21.8613 14.0641 21.922C14.2061 21.9826 14.325 22.0688 14.4208 22.1805C14.5181 22.2922 14.5915 22.4262 14.641 22.5826C14.6904 22.7374 14.7152 22.9097 14.7152 23.0996V23.3869H12.6567V22.9273H14.0378V22.8746C14.0378 22.7789 14.0202 22.6935 13.9851 22.6185C13.9516 22.5419 13.9005 22.4813 13.8319 22.4366C13.7633 22.3919 13.6755 22.3696 13.5686 22.3696C13.4777 22.3696 13.3995 22.3895 13.3341 22.4294C13.2686 22.4693 13.2152 22.5252 13.1737 22.597C13.1338 22.6688 13.1035 22.7534 13.0827 22.8507C13.0636 22.9464 13.054 23.0518 13.054 23.1667V23.2624C13.054 23.3661 13.0684 23.4619 13.0971 23.5496C13.1274 23.6374 13.1697 23.7132 13.224 23.777C13.2798 23.8409 13.3468 23.8903 13.425 23.9254C13.5048 23.9605 13.595 23.9781 13.6955 23.9781C13.82 23.9781 13.9357 23.9542 14.0426 23.9063C14.1511 23.8568 14.2444 23.7826 14.3226 23.6837L14.6577 24.0475C14.6035 24.1257 14.5293 24.2007 14.4351 24.2725C14.3426 24.3443 14.2309 24.4034 14.1 24.4496C13.9692 24.4943 13.82 24.5167 13.6524 24.5167ZM15.7971 22.4438V24.4688H15.1077V21.8789H15.7564L15.7971 22.4438ZM16.5774 21.8621L16.5654 22.5012C16.5319 22.4964 16.4912 22.4925 16.4434 22.4893C16.3971 22.4845 16.3548 22.4821 16.3165 22.4821C16.2192 22.4821 16.1346 22.4948 16.0628 22.5204C15.9926 22.5443 15.9335 22.5802 15.8857 22.6281C15.8394 22.676 15.8043 22.7342 15.7803 22.8028C15.758 22.8714 15.7452 22.9496 15.742 23.0374L15.6032 22.9943C15.6032 22.8268 15.62 22.6728 15.6535 22.5323C15.687 22.3903 15.7357 22.2667 15.7995 22.1613C15.8649 22.056 15.9447 21.9746 16.0388 21.9172C16.133 21.8597 16.2407 21.831 16.362 21.831C16.4003 21.831 16.4394 21.8342 16.4793 21.8406C16.5192 21.8454 16.5519 21.8526 16.5774 21.8621ZM17.925 23.9781C18.0096 23.9781 18.0846 23.9621 18.15 23.9302C18.2154 23.8967 18.2665 23.8504 18.3032 23.7914C18.3415 23.7307 18.3614 23.6597 18.363 23.5784H19.0117C19.0101 23.7603 18.9614 23.9222 18.8657 24.0643C18.77 24.2047 18.6415 24.3156 18.4803 24.397C18.3192 24.4768 18.1388 24.5167 17.9394 24.5167C17.7383 24.5167 17.5628 24.4831 17.4128 24.4161C17.2644 24.3491 17.1407 24.2565 17.0418 24.1385C16.9428 24.0188 16.8686 23.88 16.8192 23.722C16.7697 23.5624 16.745 23.3917 16.745 23.2097V23.1403C16.745 22.9568 16.7697 22.7861 16.8192 22.6281C16.8686 22.4685 16.9428 22.3297 17.0418 22.2116C17.1407 22.0919 17.2644 21.9986 17.4128 21.9315C17.5612 21.8645 17.7351 21.831 17.9346 21.831C18.1468 21.831 18.3327 21.8717 18.4923 21.9531C18.6535 22.0345 18.7795 22.151 18.8705 22.3026C18.963 22.4526 19.0101 22.6305 19.0117 22.8363H18.363C18.3614 22.7502 18.3431 22.672 18.308 22.6018C18.2745 22.5315 18.225 22.4757 18.1596 22.4342C18.0958 22.3911 18.0168 22.3696 17.9226 22.3696C17.8221 22.3696 17.7399 22.3911 17.6761 22.4342C17.6122 22.4757 17.5628 22.5331 17.5277 22.6065C17.4926 22.6784 17.4678 22.7605 17.4535 22.8531C17.4407 22.944 17.4343 23.0398 17.4343 23.1403V23.2097C17.4343 23.3103 17.4407 23.4068 17.4535 23.4994C17.4662 23.5919 17.4902 23.6741 17.5253 23.7459C17.562 23.8177 17.6122 23.8744 17.6761 23.9159C17.7399 23.9573 17.8229 23.9781 17.925 23.9781ZM20.8093 23.8847V22.731C20.8093 22.648 20.7958 22.577 20.7686 22.518C20.7415 22.4573 20.6992 22.4103 20.6418 22.3768C20.5859 22.3433 20.5133 22.3265 20.4239 22.3265C20.3473 22.3265 20.2811 22.3401 20.2253 22.3672C20.1694 22.3927 20.1263 22.4302 20.096 22.4797C20.0657 22.5276 20.0505 22.5842 20.0505 22.6496H19.3612C19.3612 22.5395 19.3867 22.435 19.4378 22.3361C19.4888 22.2371 19.563 22.1502 19.6604 22.0752C19.7577 21.9986 19.8734 21.9387 20.0075 21.8956C20.1431 21.8526 20.2947 21.831 20.4622 21.831C20.6633 21.831 20.842 21.8645 20.9984 21.9315C21.1548 21.9986 21.2777 22.0991 21.367 22.2331C21.458 22.3672 21.5035 22.5347 21.5035 22.7358V23.844C21.5035 23.9861 21.5122 24.1026 21.5298 24.1935C21.5473 24.2829 21.5729 24.3611 21.6064 24.4281V24.4688H20.9098C20.8763 24.3986 20.8508 24.3108 20.8333 24.2055C20.8173 24.0986 20.8093 23.9917 20.8093 23.8847ZM20.9003 22.8914L20.9051 23.2815H20.5197C20.4287 23.2815 20.3497 23.2919 20.2827 23.3127C20.2157 23.3334 20.1606 23.3629 20.1176 23.4012C20.0745 23.4379 20.0426 23.481 20.0218 23.5305C20.0027 23.58 19.9931 23.6342 19.9931 23.6932C19.9931 23.7523 20.0067 23.8057 20.0338 23.8536C20.0609 23.8999 20.1 23.9366 20.1511 23.9637C20.2021 23.9893 20.262 24.002 20.3306 24.002C20.4343 24.002 20.5245 23.9813 20.6011 23.9398C20.6777 23.8983 20.7367 23.8472 20.7782 23.7866C20.8213 23.726 20.8436 23.6685 20.8452 23.6143L21.0271 23.9063C21.0016 23.9717 20.9665 24.0395 20.9218 24.1097C20.8787 24.18 20.8237 24.2462 20.7567 24.3084C20.6896 24.369 20.6091 24.4193 20.5149 24.4592C20.4208 24.4975 20.3091 24.5167 20.1798 24.5167C20.0154 24.5167 19.8662 24.4839 19.7322 24.4185C19.5997 24.3515 19.4944 24.2597 19.4162 24.1432C19.3396 24.0252 19.3013 23.8911 19.3013 23.7411C19.3013 23.6055 19.3269 23.485 19.3779 23.3797C19.429 23.2744 19.504 23.1858 19.6029 23.114C19.7035 23.0406 19.8287 22.9855 19.9787 22.9488C20.1287 22.9105 20.3027 22.8914 20.5005 22.8914H20.9003ZM22.7242 22.4438V24.4688H22.0348V21.8789H22.6835L22.7242 22.4438ZM23.5045 21.8621L23.4926 22.5012C23.459 22.4964 23.4184 22.4925 23.3705 22.4893C23.3242 22.4845 23.2819 22.4821 23.2436 22.4821C23.1463 22.4821 23.0617 22.4948 22.9899 22.5204C22.9197 22.5443 22.8606 22.5802 22.8128 22.6281C22.7665 22.676 22.7314 22.7342 22.7075 22.8028C22.6851 22.8714 22.6723 22.9496 22.6692 23.0374L22.5303 22.9943C22.5303 22.8268 22.5471 22.6728 22.5806 22.5323C22.6141 22.3903 22.6628 22.2667 22.7266 22.1613C22.792 22.056 22.8718 21.9746 22.966 21.9172C23.0601 21.8597 23.1678 21.831 23.2891 21.831C23.3274 21.831 23.3665 21.8342 23.4064 21.8406C23.4463 21.8454 23.479 21.8526 23.5045 21.8621ZM25.3117 23.9039V20.7922H26.0059V24.4688H25.3811L25.3117 23.9039ZM23.6745 23.205V23.1547C23.6745 22.9568 23.6968 22.7773 23.7415 22.6161C23.7862 22.4534 23.8516 22.3137 23.9378 22.1972C24.0239 22.0808 24.1301 21.9906 24.2561 21.9268C24.3822 21.8629 24.5258 21.831 24.687 21.831C24.8386 21.831 24.971 21.8629 25.0843 21.9268C25.1992 21.9906 25.2965 22.0815 25.3763 22.1996C25.4577 22.3161 25.5231 22.4542 25.5726 22.6137C25.6221 22.7717 25.658 22.9448 25.6803 23.1331V23.2432C25.658 23.4236 25.6221 23.5911 25.5726 23.7459C25.5231 23.9007 25.4577 24.0363 25.3763 24.1528C25.2965 24.2677 25.1992 24.3571 25.0843 24.4209C24.9694 24.4847 24.8354 24.5167 24.6822 24.5167C24.521 24.5167 24.3774 24.4839 24.2513 24.4185C24.1269 24.3531 24.0215 24.2613 23.9354 24.1432C23.8508 24.0252 23.7862 23.8863 23.7415 23.7268C23.6968 23.5672 23.6745 23.3932 23.6745 23.205ZM24.3638 23.1547V23.205C24.3638 23.3119 24.3718 23.4116 24.3878 23.5042C24.4053 23.5967 24.4332 23.6789 24.4715 23.7507C24.5114 23.8209 24.5625 23.876 24.6247 23.9159C24.6886 23.9542 24.766 23.9733 24.8569 23.9733C24.975 23.9733 25.0723 23.947 25.1489 23.8943C25.2255 23.8401 25.2838 23.7659 25.3237 23.6717C25.3652 23.5776 25.3891 23.469 25.3955 23.3462V23.0326C25.3907 22.9321 25.3763 22.8419 25.3524 22.7621C25.3301 22.6808 25.2965 22.6113 25.2519 22.5539C25.2088 22.4964 25.1545 22.4518 25.0891 22.4198C25.0253 22.3879 24.9495 22.372 24.8617 22.372C24.7723 22.372 24.6957 22.3927 24.6319 22.4342C24.5681 22.4741 24.5162 22.5292 24.4763 22.5994C24.438 22.6696 24.4093 22.7526 24.3902 22.8483C24.3726 22.9425 24.3638 23.0446 24.3638 23.1547Z" fill="#5881B0"/>
</svg>
