<svg width="60" height="19" viewBox="0 0 60 19" fill="none" xmlns="http://www.w3.org/2000/svg">
<path d="M42.6621 18.1044C45.1525 12.5989 47.555 7.26905 49.9869 1.96849C50.397 1.08995 51.1002 0.650675 52.0378 0.533536C55.9345 0.0942633 56.081 0.182118 56.9307 3.90129C57.8976 8.26473 58.8351 12.6282 59.8313 16.9916C60.0071 17.8116 59.9192 18.163 59.0109 18.0752C57.546 18.0752 59.0109 18.0752 57.546 18.0752C56.081 18.3094 55.2314 17.8702 55.2021 16.2595C55.1728 15.5567 54.704 15.4395 54.0887 15.4395C52.7703 15.4688 51.4518 15.5274 50.1333 15.4395C49.0786 15.3517 48.4633 15.7031 48.2582 16.728C48.0238 17.8116 47.4085 18.1923 46.2952 18.0752C45.1525 18.0166 44.0392 18.1044 42.6621 18.1044ZM50.1919 11.7203C51.3346 11.7203 52.3015 11.6911 53.2683 11.7203C53.9129 11.7496 54.1473 11.5446 53.9715 10.8711C53.5613 9.14328 53.1511 7.41547 52.6824 5.30696C51.7741 7.62047 51.0123 9.58255 50.1919 11.7203Z" fill="#5881B0"/>
<path d="M34.517 18.1629C33.1107 18.1336 31.7043 17.9872 30.3273 17.6065C29.5069 17.4015 29.3311 16.9915 29.5069 16.2301C29.712 15.3809 29.5655 14.2095 30.0929 13.7409C30.6495 13.2138 31.5871 14.1216 32.4075 14.2973C33.6087 14.5609 34.81 14.6488 36.0406 14.5023C36.8902 14.4145 37.7399 14.1509 37.945 13.1845C38.1794 12.1595 37.3883 11.7203 36.6558 11.3103C35.7183 10.7832 34.7221 10.3732 33.8138 9.78747C30.4445 7.67897 30.3566 3.87194 33.6966 1.73415C36.5972 -0.110797 39.7322 -0.140082 42.9844 0.738463C43.6876 0.943457 43.5997 1.32416 43.5411 1.822C43.5118 2.17342 43.4532 2.49555 43.4239 2.84697C43.3653 4.01836 43.0137 4.54549 41.6953 3.98908C40.6112 3.52052 39.4099 3.60838 38.238 3.72552C37.4176 3.81337 36.6851 4.10622 36.48 5.01405C36.275 5.86331 36.9781 6.21473 37.5641 6.56614C38.6189 7.18112 39.7322 7.67897 40.7577 8.35252C43.8341 10.3439 44.0099 13.9752 41.1386 16.318C39.5857 17.6065 37.2711 18.2508 34.517 18.1629Z" fill="#5881B0"/>
<path d="M11.5466 8.44064C11.8982 9.64132 12.2205 10.842 12.6306 12.3062C13.5975 9.93417 14.4765 7.73781 15.3555 5.57073C15.8828 4.25291 16.4395 2.96438 16.879 1.61728C17.172 0.738732 17.6408 0.416599 18.5783 0.504453C19.7796 0.592308 21.0102 0.533738 22.2993 0.533738C22.2993 1.26586 21.8891 1.82227 21.6254 2.40797C19.5159 7.26925 17.3771 12.1012 15.2676 16.9918C14.916 17.8118 14.4765 18.1339 13.5389 18.1046C9.70075 18.0754 9.70075 18.1046 8.64598 14.3562C7.59122 10.6077 6.50716 6.88855 5.4231 3.16937C6.36066 3.08152 6.88804 3.81364 7.56192 4.25291C9.26126 5.33645 10.2281 7.06426 11.5466 8.44064Z" fill="#5881B0"/>
<path d="M23.823 18.0459C21.5083 18.0459 21.479 18.0459 21.8599 15.7909C22.6217 11.0468 23.4714 6.30266 24.2331 1.55852C24.3503 0.826397 24.5847 0.387124 25.4344 0.533548C25.7274 0.592118 26.0204 0.533548 26.3134 0.533548C29.3605 0.533548 29.3312 0.533549 28.8038 3.43275C28.042 7.53262 27.3388 11.6618 26.6064 15.7617C26.1669 18.0459 26.1669 18.0459 23.823 18.0459Z" fill="#5881B0"/>
<path d="M11.5466 8.4406C10.2281 7.06421 9.26127 5.3364 7.62053 4.25287C6.94665 3.81359 6.41927 3.08147 5.4817 3.16933C4.66133 2.08579 3.34287 1.91008 2.20021 1.44152C1.67283 1.20724 1.11615 1.0901 0.237183 0.797255C1.23335 0.387267 1.93652 0.533691 2.6104 0.533691C4.45624 0.504406 6.33137 0.533691 8.17721 0.533691C9.14407 0.533691 10.0816 0.797255 10.316 1.73437C10.8727 3.93073 11.6052 6.12709 11.5466 8.4406Z" fill="#5881B0"/>
</svg>
